<?xml version="1.0" encoding="UTF-8"?>
<svg version="1.1" viewBox="0 0 1024 1024" width="1024" height="1024" xmlns="http://www.w3.org/2000/svg">
<path transform="translate(0)" d="m0 0h1024v1024h-1024z" fill="#FAFAFA"/>
<path transform="translate(553,487)" d="m0 0h9l12 3 8 5 5 5 1-11h22l1 41 4 7 1 9-2 3-3-11-5-7-10-6-7-2-15-1 1-2 7-1-3-4v-2l-4-2-6-2h-12l-9 4-5 6-3 8v10l4 10 8 6 4 1h12l8-3 5-4 4-8 1-13 9 2 9 6 5 6 1 3v32l-3 12-4 8-6 7-9 6-14 4h-24l-16-4-13-7 1-5 7-13 13 6 13 3h11l9-3 7-6 3-8v-11l-9 8-8 3-11 1-14-2-12-6-8-8-7-14-1-4v-20l5-13 4-6 5-6 11-7z" fill="#714730"/>
<path transform="translate(343,487)" d="m0 0h8l12 3 10 6 8 8 6 12 2 8v20l-3 11-7 11-9 8-10 4-4 1h-18l-10-4-6-4-1-2-1 42h-24v-47l5-10 9-9 7-4h3l5 10 6 5 5 2h12l10-5 5-7 2-8v-9l-4-11-7-6-7-3h-10l-9 4-3 1-2 4-3 8-1 6h10l-3 2-13 5-10 7-6 8-4 9-1 8-2-1v-13l5-10 1-58h21l2 9 9-7 8-3z" fill="#5F8C3D"/>
<path transform="translate(660,487)" d="m0 0 16 1 12 4 10 9 5 10 1 3 1 14v49l-1 1h-22l-1-10-5 5-8 5-11 2h-8l-12-3-8-6-4-5-3-8v-10l3-9 5-6 10-5 10-2h31l-3-11-6-5-10-2-13 1-11 4-5 2-6-15v-3l12-6 11-3z" fill="#714830"/>
<path transform="translate(816,487)" d="m0 0 14 1 10 4 8 7 5 10 2 7v62h-24l-1-54-3-8-5-4-6-2h-7l-9 3-5 5-3 8-1 52h-24v-89h23l1 10 8-7 10-4z" fill="#714630"/>
<path transform="translate(175,463)" d="m0 0h25l1 67 2 12 4 8 5 4 7 3 8 1 12-2 6-4 4-5 3-8 1-11v-14l5 1 10 6 8 9 1 3v9l-4 13-6 10-8 7-13 6-12 2h-15l-14-3-12-6-7-6-6-10-3-8-2-12z" fill="#5F8C3D"/>
<path transform="translate(462,514)" d="m0 0 11 1 11 4 6 4 8 16 13 29 4 10h-27l-6-13-4-10-1-1h-52l-10 24h-26l3-9 13-29 5-5 10-6 15-6h2l-2 6-2 5 36-1-7-16z" fill="#714730"/>
<path transform="translate(438,463)" d="m0 0h26l4 8 15 35 3 5 8 7 1 4-4-2-8-5-9-3-14-2-6-13-3-8-5 12-6 15-5 3-15 6-9 5-7 6-4 6-1-3 3-6 5-6 5-4 21-49z" fill="#714830"/>
<path transform="translate(254,463)" d="m0 0h24l1 58 3 6 1 7-2 4-4-12-7-8-10-6-13-5v-2h6v-28z" fill="#5F8C3D"/>
<path transform="translate(723,489)" d="m0 0h24v30l-7 14-13 16-6 12-1 10-1 3-2-4v-12l5-11z" fill="#704A30"/>
<path transform="translate(134,419)" d="m0 0h10l12 3 9 6 7 9 3 10v8l-4-4-6-7-13-8h-2l9 7 8 9 5 9-13-1-11-4-9-8-5-8-7-19z" fill="#5F8C3D"/>
<path transform="translate(751,505)" d="m0 0 3 3 1 10-4 13-3 7-1 40h-24v-14l3-8 8-10 11-14 5-12 1-4z" fill="#714930"/>
<path transform="translate(653,541)" d="m0 0h28v8l-4 8-5 4-7 2h-9l-7-3-3-4v-9l5-5z" fill="#FBFBFB"/>
<path transform="translate(758,443)" d="m0 0h5l-1 11-3 9-4 5-12 6-1-4 6-12-5 5-4 8-2-4 1-10 4-6 6-5z" fill="#704B31"/>
<path transform="translate(834,459)" d="m0 0 9 3 7 7 2 6-1 10-2 2-4-12v3l1 3v7l-7-4-4-5-2-7z" fill="#714D32"/>
<path transform="translate(711,453)" d="m0 0h7l9 3 6 7 1 2v8l-9-9 6 9v3l-8-1-6-4-3-3-4-14z" fill="#704C31"/>
<path transform="translate(864,476)" d="m0 0h9l4 1-3 9-6 7-4 2-11 1 2-5 7-6-7 4-4 4 1-7 5-7z" fill="#704C31"/>
<path transform="translate(726,426)" d="m0 0 5 1 6 5 3 6v8l-3 6h-1l-2-11-1-4v4l1 3v8l-6-4-4-6v-10z" fill="#704C31"/>
<path transform="translate(227,496)" d="m0 0 9 2 4 5-3 1h-4l7 3-2 4h-9l-7-4-5-6v-2z" fill="#5F8C3D"/>
<path transform="translate(236,475)" d="m0 0 8 1 5 5 2 4v7l-3-3-4-5 4 10-6-2-5-5-1-2z" fill="#5F8C3D"/>
<path transform="translate(398,501)" d="m0 0h7l6 4 2 4v8l-5-4 2 5-6-1-5-6z" fill="#724F34"/>
<path transform="translate(494,488)" d="m0 0h6l-2 12-5 5-5 1 1-5 1-3-4 7h-1v-9l5-6z" fill="#6F4D31"/>
</svg>
